PathFileType	4	(X/Y/Z)	E:\Qualisys_Data\Carbon_Farble_Plate\Data\Amateur_Runner\S2\T1\S2T1V12_c3d.trc
DataRate	CameraRate	NumFrames	NumMarkers	Units	OrigDataRate	OrigDataStartFrame	OrigNumFrames
200.000000	200.000000	4	39	mm	200.000000	160	320
Frame#	Time	LSHO			RSHO			LICST			RICST			LASIS			LHEEL			RASIS			LTROC			RTROC			SACR			LTH1			LSK4			LTH2			LTH3			RHM5			LSK2			LTH4			RTH1			LTOE			RTH2			RTH3			RTH4			LLEP			RLEP			LSK1			LSK3			RSK1			LHM5			RSK2			LFT1			RSK3			RSK4			LLME			RLME			RTOE			RHEEL			RFT1			RFT2			LFT2			
		X1	Y1	Z1	X2	Y2	Z2	X3	Y3	Z3	X4	Y4	Z4	X5	Y5	Z5	X6	Y6	Z6	X7	Y7	Z7	X8	Y8	Z8	X9	Y9	Z9	X10	Y10	Z10	X11	Y11	Z11	X12	Y12	Z12	X13	Y13	Z13	X14	Y14	Z14	X15	Y15	Z15	X16	Y16	Z16	X17	Y17	Z17	X18	Y18	Z18	X19	Y19	Z19	X20	Y20	Z20	X21	Y21	Z21	X22	Y22	Z22	X23	Y23	Z23	X24	Y24	Z24	X25	Y25	Z25	X26	Y26	Z26	X27	Y27	Z27	X28	Y28	Z28	X29	Y29	Z29	X30	Y30	Z30	X31	Y31	Z31	X32	Y32	Z32	X33	Y33	Z33	X34	Y34	Z34	X35	Y35	Z35	X36	Y36	Z36	X37	Y37	Z37	X38	Y38	Z38	X39	Y39	Z39	

161	0.8	304.4695434570312	1481.961547851562	-407.6895751953125	249.0452575683594	1459.256469726562	-103.947639465332	240.6267395019531	1022.13818359375	-413.6835632324219	235.0644378662109	1010.619445800781	-116.989372253418	292.2186584472656	968.59228515625	-399.4007568359375	-263.5319213867188	419.9375305175781	-321.8597412109375	293.5335083007812	965.0565795898438	-143.5773773193359	147.8454895019531	915.7135620117188	-422.2390747070312	158.0267639160156	903.4998779296876	-108.5559463500977	142.5639190673828	1059.352294921875	-271.8169555664062	204.4074249267578	659.7969970703125	-432.4001159667969	-117.5269546508789	480.4971008300781	-412.9197998046875	124.4727935791016	680.065185546875	-435.3899536132812	177.0844116210938	560.168701171875	-423.2187805175781	518.0875854492188	113.4930953979492	-117.6519165039062	-26.21526908874512	519.4907836914062	-429.1949157714844	95.67782592773438	584.7030029296875	-415.1429443359375	358.6808776855469	663.643310546875	-96.6498565673828	-287.5142822265625	186.0223541259766	-385.295654296875	281.7850036621094	640.6131591796875	-93.58795928955078	383.1112365722656	570.1032104492188	-131.1012420654297	305.2108764648438	550.4403076171875	-122.6440658569336	110.4874725341797	530.1009521484375	-424.9184875488281	345.1811828613281	525.0645141601562	-122.4119415283203	3.172475337982178	445.3098754882812	-433.0059204101562	-89.74461364746094	408.326416015625	-423.152587890625	393.0356750488281	409.8486938476562	-120.8854827880859	-312.912353515625	249.2810516357422	-433.085693359375	313.6374816894531	401.7025451660156	-109.2772521972656	-283.3104553222656	402.0032348632812	-291.899658203125	402.0678100585938	308.2933349609375	-131.5349884033203	323.0574340820312	303.6920166015625	-122.0398712158203	-263.399658203125	376.8680419921875	-389.40283203125	385.466064453125	116.3858337402344	-155.4506072998047	566.5692749023438	154.1823425292969	-175.4617462158203	335.9111022949219	81.25885009765625	-214.5311126708984	361.7112731933594	62.89999389648438	-244.5806579589844	343.8140258789062	55.08354187011719	-190.6954956054688	-294.4562072753906	424.8672485351562	-340.3485412597656
162	0.805	320.874267578125	1477.973510742188	-406.576171875	265.3773498535156	1454.413696289062	-102.8315887451172	256.2644958496094	1018.106140136719	-413.4027404785156	249.9321594238281	1006.927978515625	-116.1191711425781	308.0162048339844	964.8056640625	-398.4308471679688	-243.8943634033203	424.5640563964844	-321.6000366210938	308.7747497558594	961.2823486328124	-142.4553680419922	164.5022888183594	910.5904541015624	-421.9058837890625	172.6006317138672	899.54541015625	-107.7432174682617	158.225830078125	1055.413208007812	-271.5021362304688	223.7947845458984	654.7894287109375	-432.7090148925781	-96.0350341796875	480.5016784667969	-413.1260375976562	143.5162658691406	674.14794921875	-435.5176086425781	197.8848571777344	554.9425048828125	-423.6623229980469	528.6387939453125	108.3097305297852	-118.3374099731445	-3.847610473632812	516.6190185546875	-429.5452270507812	116.4921035766602	578.3842163085938	-415.6739501953125	374.7829284667969	660.8851928710938	-97.44991302490234	-272.8859558105469	191.287109375	-384.9464721679688	297.9669494628906	637.9811401367188	-94.5235595703125	399.2574462890625	567.2978515625	-131.9655609130859	321.2728271484375	547.7487182617188	-122.9613800048828	131.8083343505859	524.3336791992188	-425.629638671875	360.8299865722656	522.1287231445312	-122.3487091064453	23.43643951416016	442.1259155273438	-433.1988525390625	-70.08893585205078	407.2313232421875	-423.1211242675781	407.076171875	405.1166076660156	-121.1071701049805	-296.7173156738281	254.8535003662109	-433.1885375976562	327.7783508300781	398.2106018066406	-110.1172332763672	-263.9244384765625	407.4256896972656	-291.9402465820312	415.0079956054688	303.6227722167969	-132.1628265380859	336.04541015625	299.9960021972656	-123.0364456176758	-244.8294982910156	381.4962768554688	-389.0930480957031	396.23046875	111.9024276733398	-156.8006896972656	577.570068359375	148.9197845458984	-175.7534027099609	345.9618530273438	78.01878356933594	-216.0697937011719	372.3994445800781	59.02790832519531	-246.1992340087891	354.2868957519531	50.92883682250977	-191.9925537109375	-274.5983276367188	430.0628662109375	-340.616943359375
163	0.81	337.2780151367188	1473.598266601562	-405.2469482421875	281.9093017578125	1449.468139648438	-101.3551788330078	272.1881408691406	1013.57958984375	-412.9167175292969	264.5536499023438	1002.485961914062	-115.5588836669922	323.8056335449219	960.685546875	-397.4731750488281	-223.3670043945312	429.0641479492188	-321.8874816894531	323.9174194335938	957.4321899414062	-141.5931396484375	180.9082336425781	905.3031616210938	-421.682373046875	187.8779449462891	895.0940551757812	-107.4365158081055	173.7851257324219	1050.880859375	-271.0493469238281	243.1265869140625	649.7749633789062	-433.3125	-74.54521179199219	480.3646545410156	-413.8103637695312	162.3656768798828	667.9445190429688	-435.5631103515625	219.0526428222656	549.4132080078125	-424.6554870605469	538.5543823242188	102.4242477416992	-119.190788269043	18.5982723236084	513.5086669921875	-430.5381164550781	136.9132080078125	571.6369018554688	-415.5447998046875	390.3411865234375	657.9773559570312	-98.3036880493164	-257.3860473632812	196.1912078857422	-384.0342712402344	313.6946716308594	635.325439453125	-96.39118957519533	415.0892028808594	564.7053833007812	-132.8592987060547	337.3651733398438	545.0719604492188	-123.3203964233398	153.4818420410156	517.8978881835938	-426.3393859863281	376.33544921875	518.66259765625	-123.4054565429688	44.37613677978516	438.4359130859375	-433.630615234375	-50.43190383911133	406.0336608886719	-423.0102233886719	420.9894104003906	400.1203918457031	-121.434455871582	-279.1447448730469	260.9855651855469	-433.5503540039062	341.6644897460938	394.2333374023438	-111.2483520507812	-244.3518829345703	412.1846923828125	-292.3685302734375	427.6164245605469	298.5155639648438	-132.7550811767578	348.4906311035156	296.0916137695312	-124.0581665039062	-225.7044372558594	385.9693298339844	-388.9702758789062	406.4574584960938	107.8984985351562	-158.0482482910156	587.8937377929688	142.7504577636719	-176.7153167724609	356.8250732421875	74.72181701660156	-218.0287933349609	382.2548828125	55.62302780151367	-247.9004211425781	363.6212158203125	47.95700073242188	-193.4597320556641	-254.3283538818359	435.5125427246094	-340.8418579101562
164	0.815	353.3620300292969	1468.964965820312	-404.2257995605469	298.3544311523438	1444.285522460938	-99.70262145996094	287.9077453613281	1008.7275390625	-412.27392578125	279.3336181640625	998.4720458984376	-114.7031021118164	339.7001342773438	956.16015625	-396.8835144042969	-203.1915893554688	433.3644409179688	-321.6680908203125	338.9505310058594	953.560302734375	-140.4220428466797	197.2156524658203	899.8400268554688	-421.3783569335938	202.6994018554688	890.8074951171875	-106.8097152709961	189.1328887939453	1046.510375976562	-270.508544921875	262.7698364257812	644.6975708007812	-433.9320373535156	-52.9467658996582	480.0450744628906	-414.2891235351562	181.7638397216797	661.652587890625	-435.9345703125	240.1375427246094	544.1085205078125	-425.9013977050781	547.014892578125	95.58950805664062	-120.8456115722656	41.66958618164062	510.4985656738281	-431.0894165039062	157.8458404541016	564.8589477539062	-415.8680114746094	405.5987854003906	654.979248046875	-99.51889801025392	-240.9809112548828	201.1056060791016	-383.4669494628906	329.6004333496094	632.9246215820312	-98.01969146728516	430.8000793457031	561.6837768554688	-133.9869537353516	353.4653930664062	542.3865966796875	-123.4620056152344	175.6756744384766	511.5406494140625	-427.3018798828125	392.0271911621094	514.9097290039062	-123.7628707885742	65.04004669189453	434.6235656738281	-434.0903625488281	-30.0908088684082	404.7374267578125	-423.1823425292969	434.7541198730469	394.9492797851562	-121.7297973632812	-262.1944274902344	265.4644470214844	-432.9362182617188	355.2955932617188	390.3795471191406	-111.6753540039062	-223.8231964111328	417.5251159667969	-291.9212036132812	440.0952758789062	293.648193359375	-133.4984893798828	360.9112243652344	292.1485290527344	-124.7732009887695	-205.8909454345703	390.0107116699219	-389.0078125	416.4463806152344	104.0176086425781	-159.1652069091797	597.8807983398438	134.7912445068359	-178.1625213623047	365.8003540039062	75.31623077392578	-220.0088348388672	389.9104309082031	53.78307723999023	-249.1500854492188	370.6680908203125	49.63696670532227	-194.6261291503906	-233.7912750244141	440.1780700683594	-340.8696594238281
